<svg width="128" height="128" viewBox="0 0 128 128" fill="none" xmlns="http://www.w3.org/2000/svg">
<rect width="128" height="128" fill="#3B3B3B"/>
<path d="M24.5947 18.0001H104.21C104.31 17.9984 104.408 18.0225 104.496 18.0699C104.585 18.1173 104.659 18.1864 104.713 18.2708C104.767 18.3552 104.798 18.4519 104.804 18.5518C104.809 18.6517 104.789 18.7514 104.746 18.8413C97.8822 32.7012 87.5367 44.5408 74.7222 53.2006C54.0235 67.1661 33.1799 68.6083 24.6009 68.6853C24.5226 68.687 24.4447 68.673 24.3719 68.6441C24.299 68.6153 24.2327 68.5722 24.1767 68.5173C24.1208 68.4625 24.0763 68.3971 24.046 68.3249C24.0156 68.2526 24 68.1751 24 68.0967V18.5887C24 18.5108 24.0154 18.4338 24.0454 18.362C24.0753 18.2902 24.1193 18.225 24.1746 18.1703C24.2299 18.1155 24.2955 18.0723 24.3676 18.0431C24.4397 18.0139 24.5169 17.9993 24.5947 18.0001Z" fill="#FF6250"/>
<path d="M41.7774 110.444C51.5956 110.444 59.5549 102.485 59.5549 92.6668C59.5549 82.8486 51.5956 74.8894 41.7774 74.8894C31.9592 74.8894 24 82.8486 24 92.6668C24 102.485 31.9592 110.444 41.7774 110.444Z" fill="#FFDF90"/>
<path d="M78.1173 109.392C73.0882 107.472 70.4134 101.937 72.1175 97.0378L85.5377 58.7403C87.2572 53.8407 92.7269 51.4278 97.756 53.3476C102.785 55.2705 105.46 60.8019 103.756 65.7046L90.3356 104.002C88.6161 108.902 83.1464 111.318 78.1173 109.392Z" fill="#3366FF"/>
</svg>
