<svg width="128" height="128" viewBox="0 0 128 128" fill="none" xmlns="http://www.w3.org/2000/svg">
<path d="M60.6592 36.1006H25.6301C18.2074 36.1006 12.1901 42.102 12.1901 49.5054V84.443C12.1901 91.846 18.2074 97.8478 25.6301 97.8478H60.6592C68.0818 97.8478 74.0992 91.846 74.0992 84.443V49.5054C74.0992 42.102 68.0818 36.1006 60.6592 36.1006Z" fill="#854AF6"/>
<path d="M70.1291 78.3758C87.573 78.3758 101.714 64.272 101.714 46.8736C101.714 29.4755 87.573 15.3715 70.1291 15.3715C52.6852 15.3715 38.5444 29.4755 38.5444 46.8736C38.5444 64.272 52.6852 78.3758 70.1291 78.3758Z" fill="#FF6447"/>
<path d="M104.353 81.376C111.5 85.4944 111.5 92.2663 104.353 96.3449L65.6416 118.61C58.4949 122.729 52.6485 119.363 52.6485 111.126V66.5753C52.6485 58.3484 58.4949 54.9824 65.6416 59.0908L104.353 81.376Z" fill="#00BBE6"/>
</svg>
